<?xml version="1.0" encoding="UTF-8" standalone="no"?>
<svg
   xmlns:dc="http://purl.org/dc/elements/1.1/"
   xmlns:cc="http://creativecommons.org/ns#"
   xmlns:rdf="http://www.w3.org/1999/02/22-rdf-syntax-ns#"
   xmlns:svg="http://www.w3.org/2000/svg"
   xmlns="http://www.w3.org/2000/svg"
   width="128"
   height="85"
   viewBox="0 0 33.866666 22.489585"
   version="1.1"
   id="svg8">
  <defs
     id="defs2" />
  <metadata
     id="metadata5">
    <rdf:RDF>
      <cc:Work
         rdf:about="">
        <dc:format>image/svg+xml</dc:format>
        <dc:type
           rdf:resource="http://purl.org/dc/dcmitype/StillImage" />
        <dc:title></dc:title>
      </cc:Work>
    </rdf:RDF>
  </metadata>
  <g
     id="layer1">
    <g
       id="g924"
       transform="translate(0.06984669,-6.5834976)">
      <path
         id="path855"
         style="fill:{{ theme.iconColor }};stroke:{{ theme.iconColor }};stroke-width:0.317504px;stroke-linecap:butt;stroke-linejoin:miter;stroke-opacity:1"
         d="M 11.702425,10.714546 C 5.1520874,10.858237 0.64750082,16.134059 0.60970721,17.799506 l 32.50753379,-0.0038 c -0.01264,-0.55311 -0.160514,-1.430316 -0.517027,-2.681538 -2.21251,0.768529 -6.225065,1.418457 -7.494448,1.262672 -2.36196,-0.07701 -6.00682,-5.501877 -13.403341,-5.662346 z m -11.09271779,7.08496 c 0.0377931,1.665449 4.54238019,6.94127 11.09271779,7.084959 7.396521,-0.160467 11.041381,-5.585329 13.403341,-5.662344 1.269383,-0.155785 5.281938,0.493518 7.494448,1.262048 0.356513,-1.251224 0.50439,-2.127804 0.517027,-2.680914 z" />
      <path
         style="fill:{{ theme.iconColor }};stroke:{{ theme.iconColor }};stroke-width:0.317504px;stroke-linecap:butt;stroke-linejoin:miter;stroke-opacity:1"
         d="m 2.578738,22.914857 c 1.2151508,1.06918 2.0948867,1.782532 3.8124644,2.55853 1.9103014,0.782445 3.6995626,1.093031 5.4627546,1.131676 2.431397,-0.04144 3.954685,-0.540846 5.678517,-1.191163 1.596923,-0.669288 2.79019,-1.347702 4.480021,-2.557575 0.698871,-0.459279 1.230233,-0.918559 1.808018,-1.377839 -0.866859,1.264712 -1.293993,2.346809 -2.915081,3.777765 -1.234714,1.072852 -3.010747,2.109314 -5.18231,2.721587 -1.615954,0.390646 -2.804428,0.479252 -4.224419,0.439106 C 9.2076426,28.368303 7.7788007,27.629019 6.6782691,26.982152 5.6418918,26.307109 4.8731056,25.770727 4.2663407,25.095682 3.580471,24.368741 3.1147622,23.641798 2.578738,22.914857 Z"
         id="path896" />
      <path
         style="fill:{{ theme.iconColor }};stroke:{{ theme.iconColor }};stroke-width:0.317504px;stroke-linecap:butt;stroke-linejoin:miter;stroke-opacity:1"
         d="m 2.578738,12.741722 c 1.2151508,-1.06918 2.0948867,-1.782532 3.8124644,-2.55853 1.9103014,-0.7824462 3.6995626,-1.0930325 5.4627546,-1.1316761 2.431397,0.041442 3.954685,0.5408459 5.678517,1.1911631 1.596923,0.669288 2.79019,1.347701 4.480021,2.557574 0.698871,0.45928 1.230233,0.91856 1.808018,1.377839 C 22.953654,12.91338 22.52652,11.831283 20.905432,10.400327 19.670718,9.3274753 17.894685,8.2910133 15.723122,7.6787414 14.107168,7.2880953 12.918694,7.199489 11.498703,7.2396343 9.2076426,7.288273 7.7788007,8.0275604 6.6782691,8.6744268 5.6418918,9.3494696 4.8731056,9.8858513 4.2663407,10.560895 3.580471,11.287838 3.1147622,12.014779 2.578738,12.741722 Z"
         id="path912" />
    </g>
  </g>
</svg>
